<?xml version="1.0" standalone="no"?>
<!DOCTYPE svg PUBLIC "-//W3C//DTD SVG 20010904//EN"
 "http://www.w3.org/TR/2001/REC-SVG-20010904/DTD/svg10.dtd">
<svg version="1.0" xmlns="http://www.w3.org/2000/svg"
 width="3000.000000pt" height="3353.000000pt" viewBox="0 0 3000.000000 3353.000000"
 preserveAspectRatio="xMidYMid meet">

<g transform="translate(0.000000,3353.000000) scale(0.100000,-0.100000)"
fill="#000000" stroke="none">
<path d="M13990 33459 c-639 -367 -1296 -832 -1870 -1324 -488 -418 -1000
-932 -1403 -1410 l-127 -150 0 -7017 0 -7018 -22 -5 c-13 -3 -1782 -379 -3933
-835 -2151 -457 -3920 -834 -3931 -839 -16 -7 -46 -67 -112 -223 -361 -844
-621 -1709 -787 -2613 -70 -381 -149 -965 -132 -981 3 -4 2008 419 4454 939
2446 520 4451 942 4456 938 4 -4 6 -1026 5 -2271 l-3 -2263 -4770 -1013
c-2623 -558 -4776 -1017 -4783 -1021 -26 -15 -243 -541 -375 -908 -268 -745
-477 -1587 -591 -2380 -31 -213 -68 -526 -63 -531 7 -7 10077 2135 10212 2172
620 170 1215 563 1620 1070 93 116 69 81 1185 1734 699 1036 852 1268 910
1385 108 217 160 402 180 642 6 72 10 906 10 2130 0 1907 1 2012 18 2017 9 3
793 170 1742 371 949 202 1735 369 1748 372 l22 5 0 -3607 0 -3607 28 4 c15 2
2563 544 5663 1203 l5637 1199 85 200 c477 1116 777 2243 917 3440 11 98 19
180 17 182 -1 2 -1980 -418 -4396 -931 -2417 -514 -4400 -935 -4408 -935 -11
0 -13 301 -13 1799 0 1705 1 1800 18 1805 9 3 1756 375 3882 826 2126 452
3872 823 3881 826 24 7 167 338 314 729 352 936 586 1901 705 2914 11 95 18
176 16 179 -5 4 -8736 -1846 -8798 -1864 -17 -5 -18 308 -18 6480 0 4293 -3
6486 -10 6486 -15 0 -377 -215 -584 -347 -579 -369 -1138 -795 -1666 -1269
-349 -313 -848 -830 -1172 -1216 l-98 -115 0 -5386 0 -5385 -47 -11 c-27 -6
-811 -173 -1743 -371 -932 -198 -1705 -362 -1717 -365 l-23 -5 -2 8120 -3
8121 -125 -72z"/>
<path d="M24370 5040 c-3072 -653 -5611 -1194 -5643 -1202 l-59 -13 -65 -150
c-434 -1002 -739 -2077 -892 -3145 -35 -245 -66 -518 -60 -524 3 -3 11177
2368 11305 2399 17 4 37 41 92 167 462 1066 775 2214 917 3358 14 113 28 226
31 253 6 45 5 47 -18 46 -12 -1 -2536 -536 -5608 -1189z"/>
</g>
</svg>
