<svg viewBox="0 0 100 120" fill="currentColor" aria-hidden="true" shape-rendering="geometricPrecision" xmlns="http://www.w3.org/2000/svg">
  <path d="M41 4L41 103Q41 106 38.5 108.5Q36 111 31 113L0 123L5 107Q10 105 20.5 102.5Q31 100 31 92L31 66L0 83L6.5 72Q10 70 20.5 67.5Q31 65 31 57L31 11L41 4ZM53 16L53 103Q53 106 50.5 108.5Q48 111 43 113L12 123L17 107Q22 105 32.5 102.5Q43 100 43 92L43 38L80 20L84 41L53 58ZM84 66L53 83L53 103Q53 106 50.5 108.5Q48 111 43 113L12 123L17 107Q22 105 32.5 102.5Q43 100 43 92L43 83L80 66L84 66ZM84 92L53 109V120L84 103V92Z" />
</svg>
