<?xml version="1.0" encoding="UTF-8"?>
<!DOCTYPE svg PUBLIC "-//W3C//DTD SVG 1.1//EN" "http://www.w3.org/Graphics/SVG/1.1/DTD/svg11.dtd">
<svg xmlns="http://www.w3.org/2000/svg" version="1.1" width="1502px" height="453px" style="shape-rendering:geometricPrecision; text-rendering:geometricPrecision; image-rendering:optimizeQuality; fill-rule:evenodd; clip-rule:evenodd" xmlns:xlink="http://www.w3.org/1999/xlink">
<g><path style="opacity:1" fill="#35c1ed" d="M 1438.5,-0.5 C 1439.17,-0.5 1439.83,-0.5 1440.5,-0.5C 1484.07,41.0718 1497.9,91.0718 1482,149.5C 1473.61,175.952 1461.27,200.285 1445,222.5C 1430.14,242.522 1413.64,261.189 1395.5,278.5C 1395.17,277.667 1394.83,276.833 1394.5,276C 1398.49,243.219 1401.66,210.385 1404,177.5C 1331.27,231.807 1252.77,276.807 1168.5,312.5C 1143.32,275.322 1116.99,238.989 1089.5,203.5C 1210.22,155.84 1320.55,91.34 1420.5,10C 1426.67,6.63653 1432.67,3.13653 1438.5,-0.5 Z"/></g>
<g><path style="opacity:1" fill="#34bbed" d="M 1089.5,203.5 C 1116.99,238.989 1143.32,275.322 1168.5,312.5C 1152.98,320.123 1136.98,326.79 1120.5,332.5C 1119.45,332.649 1118.45,332.483 1117.5,332C 1091.29,295.745 1064.96,259.578 1038.5,223.5C 1038.86,222.817 1039.2,222.15 1039.5,221.5C 1056.17,215.496 1072.84,209.496 1089.5,203.5 Z"/></g>
<g><path style="opacity:1" fill="#36bbe7" d="M 1039.5,221.5 C 1039.2,222.15 1038.86,222.817 1038.5,223.5C 1064.96,259.578 1091.29,295.745 1117.5,332C 1118.45,332.483 1119.45,332.649 1120.5,332.5C 1118.06,333.871 1115.4,334.871 1112.5,335.5C 1085.85,298.196 1058.85,261.196 1031.5,224.5C 1033.94,223.129 1036.6,222.129 1039.5,221.5 Z"/></g>
<g><path style="opacity:1" fill="#34b5e7" d="M 1031.5,224.5 C 1058.85,261.196 1085.85,298.196 1112.5,335.5C 1090.55,344.265 1068.21,352.265 1045.5,359.5C 1018.93,322.049 992.097,284.716 965,247.5C 963.644,246.62 962.144,246.286 960.5,246.5C 984.126,239.338 1007.79,232.005 1031.5,224.5 Z"/></g>
<g><path style="opacity:1" fill="#90b0d7" d="M 16.5,232.5 C 14.0065,232.131 13.3398,232.797 14.5,234.5C 11.7261,233.277 9.0594,231.777 6.5,230C 10.0514,230.131 13.3847,230.965 16.5,232.5 Z"/></g>
<g><path style="opacity:1" fill="#5a8ec6" d="M 16.5,232.5 C 39.125,238.709 61.7917,244.709 84.5,250.5C 69.9713,251.372 55.3047,251.039 40.5,249.5C 31.4712,244.99 22.8045,239.99 14.5,234.5C 13.3398,232.797 14.0065,232.131 16.5,232.5 Z"/></g>
<g><path style="opacity:1" fill="#34afe7" d="M 960.5,246.5 C 962.144,246.286 963.644,246.62 965,247.5C 992.097,284.716 1018.93,322.049 1045.5,359.5C 1040.94,361.141 1036.27,362.474 1031.5,363.5C 1029.86,363.714 1028.36,363.38 1027,362.5C 999.903,325.284 973.069,287.951 946.5,250.5C 950.888,248.566 955.555,247.233 960.5,246.5 Z"/></g>
<g><path style="opacity:1" fill="#82a2d3" d="M 40.5,249.5 C 55.3047,251.039 69.9713,251.372 84.5,250.5C 90.3859,251.39 96.0526,252.723 101.5,254.5C 89.0218,253.502 76.5218,252.835 64,252.5C 58.6555,252.501 53.4889,252.834 48.5,253.5C 45.5152,252.674 42.8485,251.341 40.5,249.5 Z"/></g>
<g><path style="opacity:1" fill="#4985c2" d="M 101.5,254.5 C 154.511,265.969 207.845,275.636 261.5,283.5C 267.048,293.727 273.048,303.727 279.5,313.5C 276.343,320.681 278.676,323.848 286.5,323C 290.5,319.667 290.5,316.333 286.5,313C 283.385,312.97 280.885,311.803 279,309.5C 274.228,301.066 269.062,292.9 263.5,285C 264.448,284.517 265.448,284.351 266.5,284.5C 271.731,284.444 276.731,285.111 281.5,286.5C 294.167,304.167 306.833,321.833 319.5,339.5C 304.841,338.889 290.174,338.389 275.5,338C 272.774,337.818 270.107,337.318 267.5,336.5C 257.781,318.883 247.447,301.716 236.5,285C 215.493,284.04 194.493,283.373 173.5,283C 165.001,287.748 156.668,292.748 148.5,298C 146.35,299.411 144.016,300.245 141.5,300.5C 126.289,294.56 111.622,287.56 97.5,279.5C 100.355,278.197 103.355,278.197 106.5,279.5C 109.735,284.197 113.235,284.531 117,280.5C 118.48,273.45 115.647,270.95 108.5,273C 106.717,275.482 104.217,276.649 101,276.5C 97.1652,276.11 93.3319,275.777 89.5,275.5C 75.3482,268.926 61.6816,261.593 48.5,253.5C 53.4889,252.834 58.6555,252.501 64,252.5C 76.5218,252.835 89.0218,253.502 101.5,254.5 Z"/></g>
<g><path style="opacity:1" fill="#35afe1" d="M 946.5,250.5 C 973.069,287.951 999.903,325.284 1027,362.5C 1028.36,363.38 1029.86,363.714 1031.5,363.5C 1006.91,371.567 981.909,378.567 956.5,384.5C 956.918,383.778 957.584,383.278 958.5,383C 930.64,345.307 902.973,307.474 875.5,269.5C 873.955,268.548 872.288,268.215 870.5,268.5C 895.723,262.529 921.056,256.529 946.5,250.5 Z"/></g>
<g><path style="opacity:1" fill="#39a8e1" d="M 870.5,268.5 C 872.288,268.215 873.955,268.548 875.5,269.5C 902.973,307.474 930.64,345.307 958.5,383C 957.584,383.278 956.918,383.778 956.5,384.5C 939.717,389.057 922.717,392.724 905.5,395.5C 904.504,395.586 903.671,395.252 903,394.5C 875.167,356 847.333,317.5 819.5,279C 821.058,278.79 822.391,278.29 823.5,277.5C 839.115,274.377 854.782,271.377 870.5,268.5 Z"/></g>
<g><path style="opacity:1" fill="#80a0d3" d="M 97.5,279.5 C 94.5152,278.674 91.8485,277.341 89.5,275.5C 93.3319,275.777 97.1652,276.11 101,276.5C 104.217,276.649 106.717,275.482 108.5,273C 115.647,270.95 118.48,273.45 117,280.5C 113.235,284.531 109.735,284.197 106.5,279.5C 103.355,278.197 100.355,278.197 97.5,279.5 Z"/></g>
<g><path style="opacity:1" fill="#3aa8da" d="M 823.5,277.5 C 822.391,278.29 821.058,278.79 819.5,279C 847.333,317.5 875.167,356 903,394.5C 903.671,395.252 904.504,395.586 905.5,395.5C 897.096,397.913 888.43,399.58 879.5,400.5C 851.142,361.148 822.808,321.815 794.5,282.5C 803.986,280.529 813.653,278.863 823.5,277.5 Z"/></g>
<g><path style="opacity:1" fill="#3aa2da" d="M 794.5,282.5 C 822.808,321.815 851.142,361.148 879.5,400.5C 849.524,406.401 819.19,410.735 788.5,413.5C 789.952,412.698 791.618,412.198 793.5,412C 765.289,373.078 736.956,334.245 708.5,295.5C 706.257,294.526 703.924,294.192 701.5,294.5C 732.396,290.762 763.396,286.762 794.5,282.5 Z"/></g>
<g><path style="opacity:1" fill="#4784c1" d="M 321.5,341.5 C 328.833,351.833 336.167,362.167 343.5,372.5C 340.5,372.5 337.5,372.5 334.5,372.5C 304.969,364.767 275.969,355.434 247.5,344.5C 242.316,335.306 236.983,326.14 231.5,317C 211.855,315.601 192.188,314.768 172.5,314.5C 163.089,311.259 154.089,307.259 145.5,302.5C 154.394,296.134 163.728,290.301 173.5,285C 194.514,284.924 215.514,285.59 236.5,287C 246.626,304.085 256.626,321.251 266.5,338.5C 284.802,340.037 303.136,341.037 321.5,341.5 Z"/></g>
<g><path style="opacity:1" fill="#4583c8" d="M 281.5,286.5 C 284.902,286.342 288.236,286.676 291.5,287.5C 293.218,288.224 295.052,288.891 297,289.5C 303.575,301.158 310.408,312.491 317.5,323.5C 320.305,324.319 323.305,324.819 326.5,325C 329.926,329.848 333.592,334.515 337.5,339C 336.207,339.49 334.873,339.657 333.5,339.5C 328.833,339.5 324.167,339.5 319.5,339.5C 306.833,321.833 294.167,304.167 281.5,286.5 Z"/></g>
<g><path style="opacity:1" fill="#4689c8" d="M 306.5,289.5 C 331.175,291.834 355.842,294.167 380.5,296.5C 383.776,297.283 387.109,298.283 390.5,299.5C 394.453,298.638 398.453,298.305 402.5,298.5C 413.167,313.5 423.833,328.5 434.5,343.5C 400.653,342.787 366.986,341.453 333.5,339.5C 334.873,339.657 336.207,339.49 337.5,339C 333.592,334.515 329.926,329.848 326.5,325C 323.305,324.819 320.305,324.319 317.5,323.5C 345.47,325.184 373.47,326.184 401.5,326.5C 401.775,330.109 403.775,332.109 407.5,332.5C 412.077,331.079 413.577,328.079 412,323.5C 408.091,319.314 404.591,319.647 401.5,324.5C 399.333,324.833 397.167,325.167 395,325.5C 369.513,324.071 344.013,322.904 318.5,322C 311.915,311.498 305.581,300.832 299.5,290C 301.81,289.503 304.143,289.337 306.5,289.5 Z"/></g>
<g><path style="opacity:1" fill="#3a9cd4" d="M 701.5,294.5 C 703.924,294.192 706.257,294.526 708.5,295.5C 736.956,334.245 765.289,373.078 793.5,412C 791.618,412.198 789.952,412.698 788.5,413.5C 753.953,417.326 719.287,419.326 684.5,419.5C 690.346,418.833 696.346,418.167 702.5,417.5C 674.402,378.294 646.069,339.294 617.5,300.5C 645.491,298.552 673.491,296.552 701.5,294.5 Z"/></g>
<g><path style="opacity:1" fill="#9cbbdf" d="M 380.5,296.5 C 388.686,296.702 396.686,297.369 404.5,298.5C 403.833,298.5 403.167,298.5 402.5,298.5C 398.453,298.305 394.453,298.638 390.5,299.5C 387.109,298.283 383.776,297.283 380.5,296.5 Z"/></g>
<g><path style="opacity:1" fill="#4690c8" d="M 402.5,298.5 C 403.167,298.5 403.833,298.5 404.5,298.5C 416.351,298.614 428.018,299.281 439.5,300.5C 446.769,312.04 454.769,323.04 463.5,333.5C 462.205,334.488 460.872,335.488 459.5,336.5C 455.385,338.775 451.385,341.275 447.5,344C 443.181,344.076 438.848,343.909 434.5,343.5C 423.833,328.5 413.167,313.5 402.5,298.5 Z"/></g>
<g><path style="opacity:1" fill="#4691ce" d="M 439.5,300.5 C 462.181,300.886 484.848,301.553 507.5,302.5C 511.576,308.978 515.91,315.311 520.5,321.5C 508.49,321.242 496.49,321.075 484.5,321C 477.596,325.42 470.596,329.587 463.5,333.5C 454.769,323.04 446.769,312.04 439.5,300.5 Z"/></g>
<g><path style="opacity:1" fill="#3996d4" d="M 617.5,300.5 C 646.069,339.294 674.402,378.294 702.5,417.5C 696.346,418.167 690.346,418.833 684.5,419.5C 678.167,419.5 671.833,419.5 665.5,419.5C 651.167,399.5 636.833,379.5 622.5,359.5C 628.842,359.334 635.175,359.5 641.5,360C 644.336,366.1 648.17,366.933 653,362.5C 654.677,357.345 652.844,354.345 647.5,353.5C 645.259,354.071 643.592,355.404 642.5,357.5C 635.172,358.584 627.839,358.584 620.5,357.5C 613.065,346.95 605.399,336.617 597.5,326.5C 597.536,322.892 595.869,320.559 592.5,319.5C 588.718,313.878 584.718,308.378 580.5,303C 581.416,302.722 582.082,302.222 582.5,301.5C 594.161,301 605.827,300.667 617.5,300.5 Z"/></g>
<g><path style="opacity:1" fill="#4097ce" d="M 582.5,301.5 C 582.082,302.222 581.416,302.722 580.5,303C 584.718,308.378 588.718,313.878 592.5,319.5C 589.175,319.494 586.841,320.994 585.5,324C 563.839,323.372 542.172,322.539 520.5,321.5C 515.91,315.311 511.576,308.978 507.5,302.5C 532.507,302.556 557.507,302.223 582.5,301.5 Z"/></g>
<g><path style="opacity:1" fill="#7fa1d3" d="M 261.5,283.5 C 263.415,283.216 265.081,283.549 266.5,284.5C 265.448,284.351 264.448,284.517 263.5,285C 269.062,292.9 274.228,301.066 279,309.5C 280.885,311.803 283.385,312.97 286.5,313C 290.5,316.333 290.5,319.667 286.5,323C 278.676,323.848 276.343,320.681 279.5,313.5C 273.048,303.727 267.048,293.727 261.5,283.5 Z"/></g>
<g><path style="opacity:1" fill="#4f88c3" d="M 176.5,316.5 C 177.964,315.84 179.631,315.507 181.5,315.5C 197.896,316.24 214.229,317.407 230.5,319C 235.167,326.667 239.833,334.333 244.5,342C 243.906,342.464 243.239,342.631 242.5,342.5C 220.111,334.815 198.111,326.148 176.5,316.5 Z"/></g>
<g><path style="opacity:1" fill="#7ea4d6" d="M 291.5,287.5 C 296.694,287.741 301.694,288.407 306.5,289.5C 304.143,289.337 301.81,289.503 299.5,290C 305.581,300.832 311.915,311.498 318.5,322C 344.013,322.904 369.513,324.071 395,325.5C 397.167,325.167 399.333,324.833 401.5,324.5C 404.591,319.647 408.091,319.314 412,323.5C 413.577,328.079 412.077,331.079 407.5,332.5C 403.775,332.109 401.775,330.109 401.5,326.5C 373.47,326.184 345.47,325.184 317.5,323.5C 310.408,312.491 303.575,301.158 297,289.5C 295.052,288.891 293.218,288.224 291.5,287.5 Z"/></g>
<g><path style="opacity:1" fill="#408fce" d="M 522.5,323.5 C 529.833,333.833 537.167,344.167 544.5,354.5C 526.659,354.102 508.825,353.436 491,352.5C 486.912,352.288 483.079,352.955 479.5,354.5C 474.188,349.665 469.688,343.998 466,337.5C 465.329,336.748 464.496,336.414 463.5,336.5C 469.928,331.775 476.595,327.275 483.5,323C 496.492,323.036 509.492,323.202 522.5,323.5 Z"/></g>
<g><path style="opacity:1" fill="#79aada" d="M 592.5,319.5 C 595.869,320.559 597.536,322.892 597.5,326.5C 596.864,329.795 594.864,331.128 591.5,330.5C 588.159,331.157 586.159,329.824 585.5,326.5C 564.506,325.314 543.506,324.314 522.5,323.5C 509.492,323.202 496.492,323.036 483.5,323C 476.595,327.275 469.928,331.775 463.5,336.5C 462.391,336.557 461.391,336.89 460.5,337.5C 459.833,337.5 459.5,337.167 459.5,336.5C 460.872,335.488 462.205,334.488 463.5,333.5C 470.596,329.587 477.596,325.42 484.5,321C 496.49,321.075 508.49,321.242 520.5,321.5C 542.172,322.539 563.839,323.372 585.5,324C 586.841,320.994 589.175,319.494 592.5,319.5 Z"/></g>
<g><path style="opacity:1" fill="#7fa1d2" d="M 172.5,314.5 C 192.188,314.768 211.855,315.601 231.5,317C 236.983,326.14 242.316,335.306 247.5,344.5C 245.597,344.204 243.93,343.537 242.5,342.5C 243.239,342.631 243.906,342.464 244.5,342C 239.833,334.333 235.167,326.667 230.5,319C 214.229,317.407 197.896,316.24 181.5,315.5C 179.631,315.507 177.964,315.84 176.5,316.5C 174.847,316.34 173.514,315.674 172.5,314.5 Z"/></g>
<g><path style="opacity:1" fill="#3d96ce" d="M 522.5,323.5 C 543.506,324.314 564.506,325.314 585.5,326.5C 586.159,329.824 588.159,331.157 591.5,330.5C 594.864,331.128 596.864,329.795 597.5,326.5C 605.399,336.617 613.065,346.95 620.5,357.5C 595.166,356.5 569.833,355.5 544.5,354.5C 537.167,344.167 529.833,333.833 522.5,323.5 Z"/></g>
<g><path style="opacity:1" fill="#7a9fd2" d="M 319.5,339.5 C 324.167,339.5 328.833,339.5 333.5,339.5C 366.986,341.453 400.653,342.787 434.5,343.5C 438.848,343.909 443.181,344.076 447.5,344C 451.385,341.275 455.385,338.775 459.5,336.5C 459.5,337.167 459.833,337.5 460.5,337.5C 456.232,340.309 451.898,343.143 447.5,346C 441.879,345.711 436.212,345.544 430.5,345.5C 400.175,344.266 369.841,343.266 339.5,342.5C 333.484,342.407 327.484,342.074 321.5,341.5C 303.136,341.037 284.802,340.037 266.5,338.5C 256.626,321.251 246.626,304.085 236.5,287C 215.514,285.59 194.514,284.924 173.5,285C 163.728,290.301 154.394,296.134 145.5,302.5C 143.847,302.34 142.514,301.674 141.5,300.5C 144.016,300.245 146.35,299.411 148.5,298C 156.668,292.748 165.001,287.748 173.5,283C 194.493,283.373 215.493,284.04 236.5,285C 247.447,301.716 257.781,318.883 267.5,336.5C 270.107,337.318 272.774,337.818 275.5,338C 290.174,338.389 304.841,338.889 319.5,339.5 Z"/></g>
<g><path style="opacity:1" fill="#458fc8" d="M 463.5,336.5 C 464.496,336.414 465.329,336.748 466,337.5C 469.688,343.998 474.188,349.665 479.5,354.5C 477.833,355.833 476.167,357.167 474.5,358.5C 468.303,362.431 461.969,366.098 455.5,369.5C 454.504,369.586 453.671,369.252 453,368.5C 447.833,361.333 442.667,354.167 437.5,347C 434.964,346.814 432.631,346.314 430.5,345.5C 436.212,345.544 441.879,345.711 447.5,346C 451.898,343.143 456.232,340.309 460.5,337.5C 461.391,336.89 462.391,336.557 463.5,336.5 Z"/></g>
<g><path style="opacity:1" fill="#4483c8" d="M 321.5,341.5 C 327.484,342.074 333.484,342.407 339.5,342.5C 346.702,352.393 354.036,362.226 361.5,372 C 360.906,372.464 360.239,372.631 359.5,372.5C 354.167,372.5 348.833,372.5 343.5,372.5C 336.167,362.167 328.833,351.833 321.5,341.5 Z"/></g>
<g><path style="opacity:1" fill="#4489c8" d="M 339.5,342.5 C 369.841,343.266 400.175,344.266 430.5,345.5C 432.631,346.314 434.964,346.814 437.5,347C 442.667,354.167 447.833,361.333 453,368.5C 453.671,369.252 454.504,369.586 455.5,369.5C 450.727,374.47 444.893,376.803 438,376.5C 411.67,375.227 385.504,373.894 359.5,372.5C 360.239,372.631 360.906,372.464 361.5,372C 354.036,362.226 346.702,352.393 339.5,342.5 Z"/></g>
<g><path style="opacity:1" fill="#7cacdb" d="M 544.5,354.5 C 569.833,355.5 595.166,356.5 620.5,357.5C 627.839,358.584 635.172,358.584 642.5,357.5C 643.592,355.404 645.259,354.071 647.5,353.5C 652.844,354.345 654.677,357.345 653,362.5C 648.17,366.933 644.336,366.1 641.5,360C 635.175,359.5 628.842,359.334 622.5,359.5C 597.164,358.551 571.831,357.551 546.5,356.5C 525.187,355.061 503.853,354.561 482.5,355C 481.584,355.278 480.918,355.778 480.5,356.5C 478.483,357.529 476.483,358.529 474.5,359.5C 474.5,359.167 474.5,358.833 474.5,358.5C 476.167,357.167 477.833,355.833 479.5,354.5C 483.079,352.955 486.912,352.288 491,352.5C 508.825,353.436 526.659,354.102 544.5,354.5 Z"/></g>
<g><path style="opacity:1" fill="#438fce" d="M 546.5,356.5 C 560.615,376.455 574.948,396.288 589.5,416C 587.527,416.495 585.527,416.662 583.5,416.5C 561.412,415.425 539.412,413.425 517.5,410.5C 516.872,407.91 515.705,405.577 514,403.5C 502.201,388.214 491.034,372.548 480.5,356.5C 480.918,355.778 481.584,355.278 482.5,355C 503.853,354.561 525.187,355.061 546.5,356.5 Z"/></g>
<g><path style="opacity:1" fill="#3f96ce" d="M 546.5,356.5 C 571.831,357.551 597.164,358.551 622.5,359.5C 636.833,379.5 651.167,399.5 665.5,419.5C 637.956,419.949 610.623,418.949 583.5,416.5C 58.527,416.662 587.527,416.495 589.5,416C 574.948,396.288 560.615,376.455 546.5,356.5 Z"/></g>
<g><path style="opacity:1" fill="#4690c8" d="M 480.5,356.5 C 491.034,372.548 502.201,388.214 514,403.5C 515.705,405.577 516.872,407.91 517.5,410.5C 504.285,409.042 491.285,407.042 478.5,404.5C 471.601,393.27 463.935,382.603 455.5,372.5C 462.007,368.414 468.34,364.08 474.5,359.5C 476.483,358.529 478.483,357.529 480.5,356.5 Z"/></g>
<g><path style="opacity:1" fill="#79a1d4" d="M 474.5,358.5 C 474.5,358.833 474.5,359.167 474.5,359.5C 468.34,364.08 462.007,368.414 455.5,372.5C 451.888,374.272 448.388,376.272 445,378.5C 416.384,377.22 387.717,375.886 359,374.5C 353.988,374.501 349.155,374.834 344.5,375.5C 340.952,374.87 337.619,373.87 334.5,372.5C 337.5,372.5 340.5,372.5 343.5,372.5C 348.833,372.5 354.167,372.5 359.5,372.5C 385.504,373.894 411.67,375.227 438,376.5C 444.893,376.803 450.727,374.47 455.5,369.5C 461.969,366.098 468.303,362.431 474.5,358.5 Z"/></g>
<g><path style="opacity:1" fill="#4b8cc9" d="M 455.5,372.5 C 463.935,382.603 471.601,393.27 478.5,404.5C 433.143,397.896 388.476,388.229 344.5,375.5C 349.155,374.834 353.988,374.501 359,374.5C 387.717,375.886 416.384,377.22 445,378.5C 448.388,376.272 451.888,374.272 455.5,372.5 Z"/></g>
</svg>
